# Blender 3.6.0
# www.blender.org
mtllib pyramid.mtl
o Cube
v 0.000000 1.000000 0.000000
v 1.000000 -1.000000 -1.000000
v 1.000000 -1.000000 1.000000
v -1.000000 -1.000000 -1.000000
v -1.000000 -1.000000 1.000000
vn -0.0000 0.4472 0.8944
vn -0.8944 0.4472 -0.0000
vn -0.0000 -1.0000 -0.0000
vn 0.8944 0.4472 -0.0000
vn -0.0000 0.4472 -0.8944
vt 0.000095 0.999902
vt 0.447227 0.000094
vt 0.894351 0.999905
vt 0.894351 0.000098
vt 0.447219 0.999905
vt 0.000095 0.000095
vt 0.000624 0.000289
vt 1.000395 0.000289
vt 1.000395 0.999201
vt 0.000624 0.999201
s 0
usemtl Material
f 3/1/1 1/2/1 5/3/1
f 5/4/2 1/5/2 4/6/2
f 4/7/3 2/8/3 3/9/3 5/10/3
f 2/1/4 1/2/4 3/3/4
f 4/4/5 1/5/5 2/6/5
